<?xml version="1.0" encoding="UTF-8"?>
<svg id="Layer_2" data-name="Layer 2" xmlns="http://www.w3.org/2000/svg" viewBox="0 0 60 60">
  <defs>
    <style>
      .cls-1 {
        fill: #fff;
      }

      .cls-2 {
        stroke-width: .59px;
      }

      .cls-2, .cls-3, .cls-4, .cls-5, .cls-6 {
        stroke-linecap: round;
      }

      .cls-2, .cls-3, .cls-5, .cls-6 {
        stroke-linejoin: round;
      }

      .cls-2, .cls-4, .cls-5, .cls-6, .cls-7 {
        stroke: #1a1a1a;
      }

      .cls-3 {
        stroke: #fff;
        stroke-width: .52px;
      }

      .cls-3, .cls-4, .cls-6, .cls-7 {
        fill: none;
      }

      .cls-4 {
        stroke-width: .81px;
      }

      .cls-4, .cls-7 {
        stroke-miterlimit: 10;
      }

      .cls-8 {
        fill: #1a1a1a;
      }

      .cls-9, .cls-5 {
        fill: #999;
      }

      .cls-5, .cls-6 {
        stroke-width: .74px;
      }

      .cls-10 {
        fill: #e5d833;
      }

      .cls-7 {
        stroke-width: .88px;
      }
    </style>
  </defs>
  <g id="Layer_1-2" data-name="Layer 1">
    <g>
      <rect class="cls-1" width="60" height="60"/>
      <g>
        <g>
          <g>
            <rect class="cls-1" x="8.94" y="37.4" width="42.12" height="2.86" rx="1.03" ry="1.03"/>
            <path class="cls-8" d="M50.03,37.77c.36,0,.66.3.66.66v.8c0,.36-.3.66-.66.66H9.97c-.36,0-.66-.3-.66-.66v-.8c0-.36.3-.66.66-.66h40.06M50.03,37.03H9.97c-.77,0-1.4.63-1.4,1.4v.8c0,.77.63,1.4,1.4,1.4h40.06c.77,0,1.4-.63,1.4-1.4v-.8c0-.77-.63-1.4-1.4-1.4h0Z"/>
          </g>
          <g>
            <line class="cls-5" x1="10.37" y1="38.3" x2="10.37" y2="39.36"/>
            <line class="cls-5" x1="11.72" y1="38.3" x2="11.72" y2="39.36"/>
            <line class="cls-5" x1="13.08" y1="38.3" x2="13.08" y2="39.36"/>
            <line class="cls-5" x1="14.43" y1="38.3" x2="14.43" y2="39.36"/>
            <line class="cls-5" x1="15.78" y1="38.3" x2="15.78" y2="39.36"/>
            <line class="cls-5" x1="17.14" y1="38.3" x2="17.14" y2="39.36"/>
            <line class="cls-5" x1="18.49" y1="38.3" x2="18.49" y2="39.36"/>
            <line class="cls-5" x1="19.85" y1="38.3" x2="19.85" y2="39.36"/>
            <line class="cls-5" x1="21.2" y1="38.3" x2="21.2" y2="39.36"/>
            <line class="cls-5" x1="22.55" y1="38.3" x2="22.55" y2="39.36"/>
            <line class="cls-5" x1="23.91" y1="38.3" x2="23.91" y2="39.36"/>
            <line class="cls-5" x1="25.26" y1="38.3" x2="25.26" y2="39.36"/>
            <line class="cls-5" x1="26.62" y1="38.3" x2="26.62" y2="39.36"/>
            <line class="cls-5" x1="27.97" y1="38.3" x2="27.97" y2="39.36"/>
            <line class="cls-5" x1="29.32" y1="38.3" x2="29.32" y2="39.36"/>
            <line class="cls-5" x1="30.68" y1="38.3" x2="30.68" y2="39.36"/>
            <line class="cls-5" x1="32.03" y1="38.3" x2="32.03" y2="39.36"/>
            <line class="cls-5" x1="33.38" y1="38.3" x2="33.38" y2="39.36"/>
            <line class="cls-5" x1="34.74" y1="38.3" x2="34.74" y2="39.36"/>
            <line class="cls-5" x1="36.09" y1="38.3" x2="36.09" y2="39.36"/>
            <line class="cls-5" x1="37.45" y1="38.3" x2="37.45" y2="39.36"/>
            <line class="cls-5" x1="38.8" y1="38.3" x2="38.8" y2="39.36"/>
            <line class="cls-5" x1="40.15" y1="38.3" x2="40.15" y2="39.36"/>
            <line class="cls-5" x1="41.51" y1="38.3" x2="41.51" y2="39.36"/>
            <line class="cls-5" x1="42.86" y1="38.3" x2="42.86" y2="39.36"/>
            <line class="cls-5" x1="44.22" y1="38.3" x2="44.22" y2="39.36"/>
            <line class="cls-5" x1="45.57" y1="38.3" x2="45.57" y2="39.36"/>
            <line class="cls-5" x1="46.92" y1="38.3" x2="46.92" y2="39.36"/>
            <line class="cls-5" x1="48.28" y1="38.3" x2="48.28" y2="39.36"/>
            <line class="cls-5" x1="49.63" y1="38.3" x2="49.63" y2="39.36"/>
          </g>
          <g>
            <rect class="cls-9" x="4.41" y="7.93" width="51.19" height="31.03" rx=".26" ry=".26"/>
            <path class="cls-8" d="M55.19,8.33v30.22H4.81V8.33h50.38M55.34,7.52H4.66c-.36,0-.66.3-.66.66v30.51c0,.36.3.66.66.66h50.67c.36,0,.66-.3.66-.66V8.19c0-.36-.3-.66-.66-.66h0Z"/>
          </g>
          <line class="cls-3" x1="33.71" y1="27.16" x2="33.71" y2="34.59"/>
          <line class="cls-3" x1="26.29" y1="34.59" x2="26.29" y2="27.16"/>
          <g>
            <line class="cls-2" x1="56" y1="12.83" x2="4" y2="12.83"/>
            <line class="cls-2" x1="56" y1="18.14" x2="4.01" y2="18.14"/>
            <line class="cls-2" x1="55.99" y1="23.44" x2="4.02" y2="23.44"/>
            <line class="cls-2" x1="55.99" y1="28.75" x2="4.03" y2="28.75"/>
            <line class="cls-2" x1="55.98" y1="34.05" x2="4.04" y2="34.05"/>
          </g>
          <g>
            <path class="cls-9" d="M49.1,37.24V7.66c0-.36-.3-.66-.66-.66H11.56c-.36,0-.66.3-.66.66v29.58"/>
            <path class="cls-6" d="M49.1,37.24V7.66c0-.36-.3-.66-.66-.66H11.56c-.36,0-.66.3-.66.66v29.58"/>
          </g>
          <path class="cls-6" d="M47.51,38.83v-11.4c0-1.03-.88-1.87-1.97-1.87H14.46c-1.09,0-1.97.84-1.97,1.87v11.4"/>
          <g>
            <rect class="cls-9" x="12.49" y="6.46" width="35.02" height="15.39" rx="1.33" ry="1.33"/>
            <rect class="cls-7" x="12.49" y="6.46" width="35.02" height="15.39" rx="1.33" ry="1.33"/>
          </g>
          <g>
            <path class="cls-10" d="M14.35,20.53c-.3,0-.54-.24-.54-.54V6.72h32.38v13.27c0,.3-.24.54-.54.54H14.35Z"/>
            <path class="cls-8" d="M45.93,6.98v13.01c0,.16-.13.28-.28.28H14.35c-.16,0-.28-.13-.28-.28V6.98h31.87M46.45,6.46H13.55v13.53c0,.44.36.8.8.8h31.3c.44,0,.8-.36.8-.8V6.46h0Z"/>
          </g>
          <g>
            <path class="cls-9" d="M52.82,37.36c-.07,0-.12-.06-.12-.12s.06-.13.12-.13.12.06.12.13-.06.12-.12.12Z"/>
            <path class="cls-8" d="M52.82,36.71c-.29,0-.53.24-.53.53s.24.53.53.53.53-.24.53-.53-.24-.53-.53-.53h0Z"/>
          </g>
          <g>
            <path class="cls-9" d="M7.71,37.36c-.07,0-.12-.06-.12-.12s.06-.13.12-.13.13.06.13.13-.06.12-.13.12Z"/>
            <path class="cls-8" d="M7.71,36.71c-.29,0-.53.24-.53.53s.24.53.53.53.53-.24.53-.53-.24-.53-.53-.53h0Z"/>
          </g>
          <g>
            <line class="cls-6" x1="44.86" y1="25.56" x2="44.86" y2="34.05"/>
            <line class="cls-6" x1="15.14" y1="25.56" x2="15.14" y2="34.05"/>
          </g>
          <g>
            <g>
              <rect class="cls-8" x="20.98" y="9.12" width="3.68" height="3.68" rx=".21" ry=".21"/>
              <rect class="cls-8" x="35.34" y="9.12" width="3.68" height="3.68" rx=".21" ry=".21"/>
            </g>
            <path class="cls-4" d="M37.43,16.54v.93c0,.36-.3.66-.66.66h-13c-.36,0-.66-.3-.66-.66v-.93"/>
          </g>
        </g>
        <g>
          <path d="M5.57,50.86s-.07-.1-.07-.16v-4.76c0-.06.02-.11.07-.16.04-.05.1-.07.16-.07h3.9c.06,0,.11.02.16.07s.07.1.07.16v.42c0,.06.02.11.07.15.04.04.1.07.16.07h.42c.06,0,.11.02.16.07s.07.1.07.16v.42c0,.06-.02.11-.07.16-.05.05-.1.07-.16.07h-.42c-.06,0-.12.02-.16.07-.04.04-.07.1-.07.15v.43c0,.06.02.11.07.16.04.05.1.07.16.07h.42c.06,0,.11.02.16.07s.07.1.07.16v1.28c0,.06-.02.12-.07.16-.05.04-.1.07-.16.07h-.42c-.06,0-.12.02-.16.07-.04.04-.07.1-.07.16v.41c0,.06-.02.12-.07.16s-.1.07-.16.07h-3.9c-.06,0-.12-.02-.16-.07ZM8.76,47.45c.06,0,.11-.02.16-.07.05-.05.07-.1.07-.16v-.42c0-.06-.02-.11-.07-.16s-.1-.07-.16-.07h-1.29c-.06,0-.11.02-.16.07s-.07.1-.07.16v.42c0,.06.02.11.07.16.05.05.1.07.16.07h1.29ZM8.76,50.06c.06,0,.11-.02.16-.07.05-.04.07-.1.07-.16v-1.28c0-.06-.02-.12-.07-.16s-.1-.07-.16-.07h-1.29c-.06,0-.11.02-.16.07s-.07.1-.07.16v1.28c0,.06.02.12.07.16.05.04.1.07.16.07h1.29Z"/>
          <path d="M12.53,45.65s-.07-.1-.07-.16v-.41c0-.06.02-.11.07-.16.04-.05.1-.07.16-.07h1.28c.06,0,.12.02.16.07.04.05.07.1.07.16v.41c0,.06-.02.12-.07.16-.04.04-.1.07-.16.07h-1.28c-.06,0-.12-.02-.16-.07ZM12.53,50.86s-.07-.1-.07-.16v-3.9c0-.06.02-.11.07-.16.04-.05.1-.07.16-.07h1.28c.06,0,.12.02.16.07.04.05.07.1.07.16v3.9c0,.06-.02.12-.07.16-.04.04-.1.07-.16.07h-1.28c-.06,0-.12-.02-.16-.07Z"/>
          <path d="M16.87,50.86s-.07-.1-.07-.16v-.41c0-.06-.02-.12-.07-.16-.04-.04-.1-.07-.16-.07h-.42c-.06,0-.12-.02-.16-.07-.04-.04-.07-.1-.07-.16v-2.17c0-.06-.02-.11-.07-.15s-.1-.07-.16-.07h-.42c-.06,0-.12-.02-.16-.07-.04-.05-.07-.1-.07-.16v-.42c0-.06.02-.11.07-.16s.1-.07.16-.07h.42c.06,0,.12-.02.16-.07s.07-.1.07-.15v-.42c0-.06.02-.11.07-.16.04-.05.1-.07.16-.07h1.28c.06,0,.12.02.16.07.04.05.07.1.07.16v.42c0,.06.02.11.07.15s.1.07.16.07h1.29c.06,0,.11.02.16.07s.07.1.07.16v.42c0,.06-.02.11-.07.16-.05.05-.1.07-.16.07h-1.29c-.06,0-.11.02-.16.07s-.07.1-.07.15v2.17c0,.06.02.12.07.16s.1.07.16.07h1.29c.06,0,.11.02.16.07s.07.1.07.16v.41c0,.06-.02.12-.07.16s-.1.07-.16.07h-2.16c-.06,0-.11-.02-.16-.07Z"/>
          <path d="M23.82,50.86s-.07-.1-.07-.16v-4.76c0-.06.02-.11.07-.16.04-.05.1-.07.16-.07h3.9c.06,0,.11.02.16.07s.07.1.07.16v.42c0,.06.02.11.07.15.04.04.1.07.16.07h.42c.06,0,.11.02.16.07s.07.1.07.16v.42c0,.06-.02.11-.07.16-.05.05-.1.07-.16.07h-.42c-.06,0-.12.02-.16.07-.04.04-.07.1-.07.15v.43c0,.06.02.11.07.16.04.05.1.07.16.07h.42c.06,0,.11.02.16.07s.07.1.07.16v1.28c0,.06-.02.12-.07.16-.05.04-.1.07-.16.07h-.42c-.06,0-.12.02-.16.07-.04.04-.07.1-.07.16v.41c0,.06-.02.12-.07.16s-.1.07-.16.07h-3.9c-.06,0-.12-.02-.16-.07ZM27.01,47.45c.06,0,.11-.02.16-.07.05-.05.07-.1.07-.16v-.42c0-.06-.02-.11-.07-.16s-.1-.07-.16-.07h-1.29c-.06,0-.11.02-.16.07s-.07.1-.07.16v.42c0,.06.02.11.07.16.05.05.1.07.16.07h1.29ZM27.01,50.06c.06,0,.11-.02.16-.07.05-.04.07-.1.07-.16v-1.28c0-.06-.02-.12-.07-.16s-.1-.07-.16-.07h-1.29c-.06,0-.11.02-.16.07s-.07.1-.07.16v1.28c0,.06.02.12.07.16.05.04.1.07.16.07h1.29Z"/>
          <path d="M31.65,50.86s-.07-.1-.07-.16v-.41c0-.06-.02-.12-.07-.16-.04-.04-.1-.07-.16-.07h-.42c-.06,0-.12-.02-.16-.07-.04-.04-.07-.1-.07-.16v-2.17c0-.06.02-.11.07-.15.04-.04.1-.07.16-.07h.42c.06,0,.12-.02.16-.07.04-.05.07-.1.07-.16v-.42c0-.06.02-.11.07-.16.05-.05.1-.07.16-.07h3.03c.06,0,.11.02.16.07s.07.1.07.16v.42c0,.06.02.11.07.16.04.05.1.07.16.07h.42c.06,0,.11.02.16.07.05.04.07.1.07.15v1.3c0,.06-.02.11-.07.16-.05.05-.1.07-.16.07h-3.03c-.06,0-.11.02-.16.07-.05.04-.07.1-.07.16v.41c0,.06.02.12.07.16.05.04.1.07.16.07h2.16c.06,0,.11.02.16.07s.07.1.07.16v.41c0,.06-.02.12-.07.16s-.1.07-.16.07h-3.03c-.06,0-.11-.02-.16-.07ZM33.97,48.32c.06,0,.11-.02.16-.07.05-.05.07-.1.07-.16v-.43c0-.06-.02-.11-.07-.15s-.1-.07-.16-.07h-1.29c-.06,0-.11.02-.16.07s-.07.1-.07.15v.43c0,.06.02.11.07.16.05.05.1.07.16.07h1.29Z"/>
          <path d="M38.6,50.86s-.07-.1-.07-.16v-.41c0-.06-.02-.12-.07-.16-.04-.04-.1-.07-.16-.07h-.42c-.06,0-.12-.02-.16-.07-.04-.04-.07-.1-.07-.16v-2.17c0-.06.02-.11.07-.15.04-.04.1-.07.16-.07h.42c.06,0,.12-.02.16-.07.04-.05.07-.1.07-.16v-.42c0-.06.02-.11.07-.16.05-.05.1-.07.16-.07h2.16c.06,0,.11.02.16.07s.07.1.07.16v.42c0,.06.02.11.07.16.04.05.09.07.15.07h.42c.06,0,.11-.02.16-.07.05-.05.07-.1.07-.16v-.42c0-.06.02-.11.07-.16.04-.05.1-.07.16-.07h.42c.06,0,.11.02.16.07s.07.1.07.16v3.9c0,.06-.02.12-.07.16s-.1.07-.16.07h-.42c-.06,0-.12-.02-.16-.07-.04-.04-.07-.1-.07-.16v-.41c0-.06-.02-.12-.07-.16s-.1-.07-.16-.07h-.42c-.06,0-.11.02-.15.07s-.07.1-.07.16v.41c0,.06-.02.12-.07.16s-.1.07-.16.07h-2.16c-.06,0-.11-.02-.16-.07ZM40.92,50.06c.06,0,.11-.02.16-.07s.07-.1.07-.16v-2.17c0-.06-.02-.11-.07-.15s-.1-.07-.16-.07h-1.29c-.06,0-.11.02-.16.07s-.07.1-.07.15v2.17c0,.06.02.12.07.16s.1.07.16.07h1.29Z"/>
          <path d="M45.56,50.86s-.07-.1-.07-.16v-.41c0-.06-.02-.12-.07-.16-.04-.04-.1-.07-.16-.07h-.42c-.06,0-.12-.02-.16-.07-.04-.04-.07-.1-.07-.16v-2.17c0-.06-.02-.11-.07-.15s-.1-.07-.16-.07h-.42c-.06,0-.12-.02-.16-.07-.04-.05-.07-.1-.07-.16v-.42c0-.06.02-.11.07-.16s.1-.07.16-.07h.42c.06,0,.12-.02.16-.07s.07-.1.07-.15v-.42c0-.06.02-.11.07-.16.04-.05.1-.07.16-.07h1.28c.06,0,.12.02.16.07.04.05.07.1.07.16v.42c0,.06.02.11.07.15s.1.07.16.07h1.29c.06,0,.11.02.16.07s.07.1.07.16v.42c0,.06-.02.11-.07.16-.05.05-.1.07-.16.07h-1.29c-.06,0-.11.02-.16.07s-.07.1-.07.15v2.17c0,.06.02.12.07.16s.1.07.16.07h1.29c.06,0,.11.02.16.07s.07.1.07.16v.41c0,.06-.02.12-.07.16s-.1.07-.16.07h-2.16c-.06,0-.11-.02-.16-.07Z"/>
          <path d="M49.9,50.86s-.07-.1-.07-.16v-.41c0-.06.02-.12.07-.16.04-.04.1-.07.16-.07h2.17c.06,0,.11-.02.15-.07.04-.04.07-.1.07-.16v-.42c0-.06-.02-.12-.07-.16-.04-.04-.09-.07-.15-.07h-2.17c-.06,0-.12-.02-.16-.07-.04-.05-.07-.1-.07-.16v-1.29c0-.06.02-.11.07-.15.04-.04.1-.07.16-.07h.42c.06,0,.12-.02.16-.07.04-.05.07-.1.07-.16v-.42c0-.06.02-.11.07-.16.05-.05.1-.07.16-.07h3.03c.06,0,.11.02.16.07s.07.1.07.16v.42c0,.06-.02.11-.07.16-.05.05-.1.07-.16.07h-2.16c-.06,0-.11.02-.16.07s-.07.1-.07.15v.42c0,.06.02.11.07.16.05.05.1.07.16.07h2.16c.06,0,.11.02.16.07s.07.1.07.16v1.29c0,.06-.02.12-.07.16s-.1.07-.16.07h-.42c-.06,0-.11.02-.15.07s-.07.1-.07.16v.41c0,.06-.02.12-.07.16s-.1.07-.16.07h-3.03c-.06,0-.12-.02-.16-.07Z"/>
        </g>
      </g>
    </g>
  </g>
</svg>